<mxfile host="app.diagrams.net" modified="2022-01-03T11:20:12.897Z" agent="5.0 (Macintosh; Intel Mac OS X 10_15_7) AppleWebKit/605.1.15 (KHTML, like Gecko) Version/15.1 Safari/605.1.15" etag="Pox9C2p0Ax422FVpj3Nf" version="16.1.2" type="github">
  <diagram id="3gvWYgMETknEg6ZOerpt" name="Page-1">
    <mxGraphModel dx="1426" dy="853" grid="1" gridSize="10" guides="1" tooltips="1" connect="1" arrows="1" fold="1" page="1" pageScale="1" pageWidth="827" pageHeight="1169" math="0" shadow="0">
      <root>
        <mxCell id="0" />
        <mxCell id="1" parent="0" />
        <mxCell id="J4ZXCnpr-h4nRLdNbjSN-3" value="" style="edgeStyle=orthogonalEdgeStyle;rounded=0;orthogonalLoop=1;jettySize=auto;html=1;" edge="1" parent="1" source="J4ZXCnpr-h4nRLdNbjSN-1" target="J4ZXCnpr-h4nRLdNbjSN-2">
          <mxGeometry relative="1" as="geometry" />
        </mxCell>
        <mxCell id="J4ZXCnpr-h4nRLdNbjSN-1" value="начало&lt;span style=&quot;white-space: pre&quot;&gt;&lt;br&gt;&lt;/span&gt;" style="ellipse;whiteSpace=wrap;html=1;" vertex="1" parent="1">
          <mxGeometry x="320" y="40" width="120" height="80" as="geometry" />
        </mxCell>
        <mxCell id="J4ZXCnpr-h4nRLdNbjSN-5" value="" style="edgeStyle=orthogonalEdgeStyle;rounded=0;orthogonalLoop=1;jettySize=auto;html=1;" edge="1" parent="1" source="J4ZXCnpr-h4nRLdNbjSN-2" target="J4ZXCnpr-h4nRLdNbjSN-4">
          <mxGeometry relative="1" as="geometry" />
        </mxCell>
        <mxCell id="J4ZXCnpr-h4nRLdNbjSN-2" value="объявление a,b,c" style="rounded=1;whiteSpace=wrap;html=1;" vertex="1" parent="1">
          <mxGeometry x="320" y="160" width="120" height="60" as="geometry" />
        </mxCell>
        <mxCell id="J4ZXCnpr-h4nRLdNbjSN-11" style="edgeStyle=orthogonalEdgeStyle;rounded=0;orthogonalLoop=1;jettySize=auto;html=1;entryX=0.5;entryY=0;entryDx=0;entryDy=0;exitX=0;exitY=0.5;exitDx=0;exitDy=0;" edge="1" parent="1" source="J4ZXCnpr-h4nRLdNbjSN-4" target="J4ZXCnpr-h4nRLdNbjSN-6">
          <mxGeometry relative="1" as="geometry" />
        </mxCell>
        <mxCell id="J4ZXCnpr-h4nRLdNbjSN-22" value="true" style="edgeLabel;html=1;align=center;verticalAlign=middle;resizable=0;points=[];" vertex="1" connectable="0" parent="J4ZXCnpr-h4nRLdNbjSN-11">
          <mxGeometry x="-0.0667" y="4" relative="1" as="geometry">
            <mxPoint as="offset" />
          </mxGeometry>
        </mxCell>
        <mxCell id="J4ZXCnpr-h4nRLdNbjSN-25" style="edgeStyle=orthogonalEdgeStyle;rounded=0;orthogonalLoop=1;jettySize=auto;html=1;entryX=0.5;entryY=0;entryDx=0;entryDy=0;exitX=1;exitY=0.5;exitDx=0;exitDy=0;" edge="1" parent="1" source="J4ZXCnpr-h4nRLdNbjSN-4" target="J4ZXCnpr-h4nRLdNbjSN-7">
          <mxGeometry relative="1" as="geometry" />
        </mxCell>
        <mxCell id="J4ZXCnpr-h4nRLdNbjSN-26" value="false" style="edgeLabel;html=1;align=center;verticalAlign=middle;resizable=0;points=[];" vertex="1" connectable="0" parent="J4ZXCnpr-h4nRLdNbjSN-25">
          <mxGeometry x="0.0615" y="-3" relative="1" as="geometry">
            <mxPoint as="offset" />
          </mxGeometry>
        </mxCell>
        <mxCell id="J4ZXCnpr-h4nRLdNbjSN-4" value="a&amp;gt; b" style="rhombus;whiteSpace=wrap;html=1;" vertex="1" parent="1">
          <mxGeometry x="275" y="260" width="210" height="100" as="geometry" />
        </mxCell>
        <mxCell id="J4ZXCnpr-h4nRLdNbjSN-15" value="" style="edgeStyle=orthogonalEdgeStyle;rounded=0;orthogonalLoop=1;jettySize=auto;html=1;exitX=1;exitY=0.5;exitDx=0;exitDy=0;" edge="1" parent="1" source="J4ZXCnpr-h4nRLdNbjSN-6" target="J4ZXCnpr-h4nRLdNbjSN-12">
          <mxGeometry relative="1" as="geometry" />
        </mxCell>
        <mxCell id="J4ZXCnpr-h4nRLdNbjSN-23" value="true" style="edgeLabel;html=1;align=center;verticalAlign=middle;resizable=0;points=[];" vertex="1" connectable="0" parent="J4ZXCnpr-h4nRLdNbjSN-15">
          <mxGeometry x="0.2" y="-2" relative="1" as="geometry">
            <mxPoint as="offset" />
          </mxGeometry>
        </mxCell>
        <mxCell id="J4ZXCnpr-h4nRLdNbjSN-16" style="edgeStyle=orthogonalEdgeStyle;rounded=0;orthogonalLoop=1;jettySize=auto;html=1;" edge="1" parent="1" source="J4ZXCnpr-h4nRLdNbjSN-6" target="J4ZXCnpr-h4nRLdNbjSN-19">
          <mxGeometry relative="1" as="geometry">
            <mxPoint x="120" y="480" as="targetPoint" />
          </mxGeometry>
        </mxCell>
        <mxCell id="J4ZXCnpr-h4nRLdNbjSN-24" value="false" style="edgeLabel;html=1;align=center;verticalAlign=middle;resizable=0;points=[];" vertex="1" connectable="0" parent="J4ZXCnpr-h4nRLdNbjSN-16">
          <mxGeometry x="-0.424" y="1" relative="1" as="geometry">
            <mxPoint as="offset" />
          </mxGeometry>
        </mxCell>
        <mxCell id="J4ZXCnpr-h4nRLdNbjSN-6" value="a&amp;gt;c" style="rhombus;whiteSpace=wrap;html=1;" vertex="1" parent="1">
          <mxGeometry x="195" y="390" width="80" height="80" as="geometry" />
        </mxCell>
        <mxCell id="J4ZXCnpr-h4nRLdNbjSN-27" style="edgeStyle=orthogonalEdgeStyle;rounded=0;orthogonalLoop=1;jettySize=auto;html=1;" edge="1" parent="1" source="J4ZXCnpr-h4nRLdNbjSN-7" target="J4ZXCnpr-h4nRLdNbjSN-28">
          <mxGeometry relative="1" as="geometry" />
        </mxCell>
        <mxCell id="J4ZXCnpr-h4nRLdNbjSN-31" value="true" style="edgeLabel;html=1;align=center;verticalAlign=middle;resizable=0;points=[];" vertex="1" connectable="0" parent="J4ZXCnpr-h4nRLdNbjSN-27">
          <mxGeometry x="-0.2051" relative="1" as="geometry">
            <mxPoint as="offset" />
          </mxGeometry>
        </mxCell>
        <mxCell id="J4ZXCnpr-h4nRLdNbjSN-33" value="" style="edgeStyle=orthogonalEdgeStyle;rounded=0;orthogonalLoop=1;jettySize=auto;html=1;" edge="1" parent="1" source="J4ZXCnpr-h4nRLdNbjSN-7" target="J4ZXCnpr-h4nRLdNbjSN-32">
          <mxGeometry relative="1" as="geometry" />
        </mxCell>
        <mxCell id="J4ZXCnpr-h4nRLdNbjSN-7" value="b&amp;gt;c" style="rhombus;whiteSpace=wrap;html=1;" vertex="1" parent="1">
          <mxGeometry x="485" y="400" width="80" height="80" as="geometry" />
        </mxCell>
        <mxCell id="J4ZXCnpr-h4nRLdNbjSN-14" value="" style="edgeStyle=orthogonalEdgeStyle;rounded=0;orthogonalLoop=1;jettySize=auto;html=1;" edge="1" parent="1" source="J4ZXCnpr-h4nRLdNbjSN-12" target="J4ZXCnpr-h4nRLdNbjSN-13">
          <mxGeometry relative="1" as="geometry" />
        </mxCell>
        <mxCell id="J4ZXCnpr-h4nRLdNbjSN-12" value="print ln a" style="rounded=1;whiteSpace=wrap;html=1;" vertex="1" parent="1">
          <mxGeometry x="275" y="590" width="120" height="60" as="geometry" />
        </mxCell>
        <mxCell id="J4ZXCnpr-h4nRLdNbjSN-13" value="" style="ellipse;whiteSpace=wrap;html=1;rounded=1;" vertex="1" parent="1">
          <mxGeometry x="275" y="700" width="120" height="60" as="geometry" />
        </mxCell>
        <mxCell id="J4ZXCnpr-h4nRLdNbjSN-21" value="" style="edgeStyle=orthogonalEdgeStyle;rounded=0;orthogonalLoop=1;jettySize=auto;html=1;" edge="1" parent="1" source="J4ZXCnpr-h4nRLdNbjSN-19" target="J4ZXCnpr-h4nRLdNbjSN-20">
          <mxGeometry relative="1" as="geometry" />
        </mxCell>
        <mxCell id="J4ZXCnpr-h4nRLdNbjSN-19" value="print ln &amp;nbsp;c" style="rounded=1;whiteSpace=wrap;html=1;" vertex="1" parent="1">
          <mxGeometry x="60" y="590" width="120" height="60" as="geometry" />
        </mxCell>
        <mxCell id="J4ZXCnpr-h4nRLdNbjSN-20" value="" style="ellipse;whiteSpace=wrap;html=1;rounded=1;" vertex="1" parent="1">
          <mxGeometry x="60" y="700" width="120" height="60" as="geometry" />
        </mxCell>
        <mxCell id="J4ZXCnpr-h4nRLdNbjSN-30" value="" style="edgeStyle=orthogonalEdgeStyle;rounded=0;orthogonalLoop=1;jettySize=auto;html=1;" edge="1" parent="1" source="J4ZXCnpr-h4nRLdNbjSN-28" target="J4ZXCnpr-h4nRLdNbjSN-29">
          <mxGeometry relative="1" as="geometry" />
        </mxCell>
        <mxCell id="J4ZXCnpr-h4nRLdNbjSN-28" value="print ln b" style="rounded=1;whiteSpace=wrap;html=1;" vertex="1" parent="1">
          <mxGeometry x="660" y="590" width="120" height="60" as="geometry" />
        </mxCell>
        <mxCell id="J4ZXCnpr-h4nRLdNbjSN-29" value="" style="ellipse;whiteSpace=wrap;html=1;rounded=1;" vertex="1" parent="1">
          <mxGeometry x="660" y="700" width="120" height="60" as="geometry" />
        </mxCell>
        <mxCell id="J4ZXCnpr-h4nRLdNbjSN-35" value="" style="edgeStyle=orthogonalEdgeStyle;rounded=0;orthogonalLoop=1;jettySize=auto;html=1;" edge="1" parent="1" source="J4ZXCnpr-h4nRLdNbjSN-32" target="J4ZXCnpr-h4nRLdNbjSN-34">
          <mxGeometry relative="1" as="geometry" />
        </mxCell>
        <mxCell id="J4ZXCnpr-h4nRLdNbjSN-32" value="print ln c" style="rounded=1;whiteSpace=wrap;html=1;" vertex="1" parent="1">
          <mxGeometry x="465" y="590" width="120" height="60" as="geometry" />
        </mxCell>
        <mxCell id="J4ZXCnpr-h4nRLdNbjSN-34" value="" style="ellipse;whiteSpace=wrap;html=1;rounded=1;" vertex="1" parent="1">
          <mxGeometry x="465" y="700" width="120" height="60" as="geometry" />
        </mxCell>
      </root>
    </mxGraphModel>
  </diagram>
</mxfile>
